<svg width="140" height="42" viewBox="0 0 140 42" fill="none" xmlns="http://www.w3.org/2000/svg">
<rect width="140" height="42" rx="5.25" fill="#111111"/>
<path d="M9 29.547V12.143H12.8337V29.547H9ZM12.3662 29.547V26.1139H19.5192V29.547H12.3662Z" fill="white"/>
<path d="M22.0816 29.547V12.143H25.9153V29.547H22.0816Z" fill="white"/>
<path d="M29.7965 29.547V12.143H36.0846L42.513 26.3762H43.3078L42.8403 26.8053V12.143H46.4402V29.547H40.1053L33.6769 15.3139H32.8821L33.3496 14.8848V29.547H29.7965Z" fill="white"/>
<path d="M57.4264 30C55.8213 30 54.4577 29.698 53.3356 29.094C52.2291 28.4742 51.3876 27.6 50.811 26.4715C50.2344 25.343 49.9461 24.0079 49.9461 22.4662V12.143H53.7798V22.6093C53.7798 23.3722 53.92 24.0397 54.2005 24.6119C54.4966 25.1682 54.9096 25.5974 55.4395 25.8993C55.9849 26.2013 56.6472 26.3523 57.4264 26.3523C58.2212 26.3523 58.8835 26.2013 59.4134 25.8993C59.9588 25.5974 60.3718 25.1682 60.6523 24.6119C60.9328 24.0556 61.0731 23.3881 61.0731 22.6093V12.143H64.9068V22.4662C64.9068 24.0079 64.6185 25.343 64.0418 26.4715C63.4652 27.6 62.6237 28.4742 61.5172 29.094C60.4108 29.698 59.0472 30 57.4264 30Z" fill="white"/>
<path d="M66.5098 29.547L72.3305 20.2728L72.3772 20.6781L67.0007 12.143H71.2084L74.5278 17.5788H75.0655L78.3381 12.143H82.4289L77.0291 20.7258L76.9589 20.3444L82.9666 29.547H78.7355L74.8551 23.396H74.2941L70.6007 29.547H66.5098Z" fill="white"/>
<path d="M88.359 29.6662V26.6146H92.3563C93.0732 26.6146 93.6108 26.4238 93.9692 26.0424C94.3277 25.6609 94.5069 25.1205 94.5069 24.4212C94.5069 23.7219 94.3277 23.1894 93.9692 22.8238C93.6108 22.4424 93.0732 22.2517 92.3563 22.2517H88.359V19.8914H92.1693C93.3537 19.8914 94.4056 20.0424 95.325 20.3444C96.2445 20.6305 96.9692 21.0993 97.499 21.751C98.0289 22.4026 98.2938 23.2848 98.2938 24.3974V24.7311C98.2938 25.7642 98.06 26.6543 97.5925 27.4013C97.125 28.1325 96.4393 28.6967 95.5354 29.094C94.6315 29.4755 93.5095 29.6662 92.1693 29.6662H88.359ZM85.0863 29.6662V12H88.8265V29.6662H85.0863ZM88.359 21.6318V19.2954H91.7251C92.4576 19.2954 92.9874 19.1046 93.3147 18.7232C93.642 18.3417 93.8056 17.8331 93.8056 17.1974C93.8056 16.5298 93.642 16.0053 93.3147 15.6238C92.9874 15.2424 92.4576 15.0517 91.7251 15.0517H88.359V12H91.4914C93.455 12 94.9588 12.4212 96.0029 13.2636C97.0627 14.106 97.5925 15.306 97.5925 16.8636V17.2212C97.5925 18.302 97.3198 19.1682 96.7744 19.8199C96.2445 20.4715 95.5198 20.9404 94.6004 21.2265C93.6965 21.4967 92.6602 21.6318 91.4914 21.6318H88.359Z" fill="white"/>
<path d="M101.272 29.547V12.143H105.012V29.547H101.272ZM104.544 29.547V26.3046H112.001V29.547H104.544ZM104.544 22.3232V19.0808H111.463V22.3232H104.544ZM104.544 15.3854V12.143H111.837V15.3854H104.544Z" fill="white"/>
<path d="M126.372 29.547L120.481 21.4172H118.12L125.273 12.143H129.668L123.239 20.4636L123.192 18.7709L131 29.547H126.372ZM115.151 29.547V12.143H118.985V29.547H115.151Z" fill="white"/>
</svg>
